<svg width="36" height="65" viewBox="0 0 36 65" fill="none" xmlns="http://www.w3.org/2000/svg">
<g clip-path="url(#clip0)">
<path d="M13.8426 43.886C14.3294 43.2928 14.7553 42.7604 15.3029 42.1062C15.5311 42.8212 15.6984 43.384 15.881 43.9621C15.957 43.9469 16.0331 43.9317 16.1091 43.9165C16.1548 43.7643 16.2156 43.6122 16.2156 43.4601C16.2004 41.8933 16.2156 40.3265 16.17 38.7597C16.1244 37.345 15.3638 36.2649 14.3598 35.3674C13.7513 34.835 13.5383 34.2265 13.5231 33.4355C13.4167 29.9064 13.6144 26.362 14.2989 22.9242C15.0291 19.2733 14.7401 15.6225 15.0139 11.9717C15.166 9.94851 15.1508 7.92535 15.3333 5.90218C15.4094 5.00468 15.7745 4.1224 16.0027 3.2249C16.0939 3.2249 16.1852 3.2249 16.2765 3.2249C16.3525 3.4835 16.459 3.7421 16.4894 4.01591C16.6568 5.82612 16.7785 7.65153 16.9762 9.46174C17.0371 10.0246 17.2957 10.5874 17.4478 11.135C17.5695 11.135 17.7064 11.135 17.8281 11.135C17.9041 10.7547 18.0715 10.3897 18.0562 10.0246C17.9041 7.80365 17.6912 5.58273 17.5086 3.36181C17.4174 2.26656 17.3565 1.1561 17.2804 0.0608472C17.3565 0.0456354 17.4174 0.0152118 17.4934 0C17.6151 0.349871 17.7976 0.699743 17.8585 1.06483C18.6343 6.02387 19.1059 10.9981 19.3949 16.018C19.6839 20.9771 20.1403 25.9057 20.551 30.8647C20.627 31.7927 20.8096 32.7206 20.8552 33.6485C20.8704 33.9527 20.7335 34.3634 20.5206 34.5916C19.1667 36.0367 18.4365 37.7557 18.1171 39.6724C17.9193 40.8132 17.752 41.9541 17.6151 43.1102C17.5543 43.5818 17.8129 43.8708 18.3909 43.7948C18.5126 43.2471 18.6343 42.6843 18.7864 41.9389C19.4557 42.9277 20.0034 43.7643 20.551 44.6162C20.6118 44.7075 20.627 44.8748 20.5966 44.9813C19.8208 47.8563 19.9729 50.8378 19.5166 53.7585C19.0754 56.6639 18.7408 59.5846 18.3757 62.4901C18.3148 63.0073 18.3605 63.5549 18.2996 64.0721C18.254 64.3915 18.1019 64.6958 17.9802 65C17.7368 64.711 17.3869 64.4676 17.2804 64.1481C17.0218 63.3115 16.9002 62.414 16.6872 61.5621C15.9722 58.6719 15.2573 55.7817 14.5423 52.8762C14.4967 52.6632 14.4358 52.4046 14.4967 52.2069C15.1356 50.1381 14.8922 48.0541 14.7097 45.9548C14.6792 45.179 14.6336 44.4337 13.8426 43.886Z" fill="#4C4C4C"/>
<path d="M35.0783 5.29364C35.1087 5.52182 35.2152 5.76521 35.1696 5.97817C34.3177 9.67464 33.6332 13.4167 32.0664 16.9155C31.61 17.9346 31.0168 18.893 31.0624 20.0643C31.0624 20.262 31.0928 20.4598 31.1233 20.6576C31.1841 20.7032 31.2602 20.7336 31.321 20.7793C31.5492 20.475 31.8686 20.186 32.0055 19.8513C32.4923 18.68 32.903 17.4783 33.3594 16.307C33.4507 16.0636 33.6028 15.8354 33.7245 15.592C33.8005 15.6072 33.8766 15.6225 33.9526 15.6377C33.907 16.2461 33.8766 16.8546 33.8157 17.4631C33.3442 21.9201 33.5115 26.362 33.7853 30.819C33.8614 31.9903 33.9222 32.036 34.3177 32.3706C33.1616 33.2986 32.036 34.2113 30.8951 35.124C30.53 35.4282 30.1041 35.702 29.8455 36.0823C29.6933 36.2801 29.815 36.6756 29.815 36.995C30.1193 36.9646 30.4996 37.0559 30.7125 36.9038C32.3858 35.6868 34.0743 34.4547 35.2457 32.6749C35.3369 32.5228 35.4282 32.3859 35.6412 32.3554C32.3706 40.2047 29.1001 48.054 25.7991 56.0098C25.5557 55.7512 25.358 55.5382 25.145 55.3252C25.2059 55.3252 25.2819 55.3252 25.3428 55.3252C25.5557 54.23 25.7839 53.1347 25.9665 52.0395C26.2098 50.6856 26.7118 49.4839 27.5789 48.4039C28.0961 47.7498 28.4916 47.0044 28.8871 46.2742C29.024 46.0156 29.0088 45.6658 29.1001 45.179C27.4572 45.7266 27.4116 47.3999 26.3772 48.343C26.2859 48.1149 26.1794 47.9932 26.1946 47.8563C26.2859 46.548 26.2555 45.2094 26.5293 43.9316C26.7118 43.0797 27.3203 42.3192 27.7158 41.4977C28.6894 39.5354 29.5564 37.5579 28.5373 35.3065C28.3699 34.9566 28.6285 34.3938 28.735 33.9375C28.8263 33.5724 29.0544 33.2377 29.1153 32.8726C29.1457 32.6445 28.9936 32.3859 28.9175 32.1577C28.6894 32.2794 28.3547 32.3554 28.2482 32.538C28.02 32.9791 27.8984 33.4659 27.7158 33.9527C27.0465 33.831 26.8183 33.4811 26.9248 32.8726C27.4116 30.1497 27.8223 27.4268 28.4003 24.7343C28.7654 23.061 29.3891 21.4486 29.8911 19.8209C30.6517 17.3262 31.3666 14.8162 32.2033 12.3519C32.7966 10.6178 33.5876 8.94447 34.2721 7.22554C34.4242 6.83003 34.5155 6.4041 34.622 5.99338C34.6828 5.76521 34.7437 5.53703 34.8045 5.30885C34.8958 5.29364 34.9871 5.29364 35.0783 5.29364Z" fill="#4C4C4C"/>
<path d="M0.16733 5.44586C0.304236 5.71967 0.471566 5.97827 0.562836 6.2673C2.72291 13.5994 4.8982 20.9315 6.99743 28.2788C7.40814 29.7087 7.59069 31.1994 7.77323 32.675C7.81886 33.0553 7.59069 33.6029 7.30166 33.8919C6.0543 35.0936 6.06951 36.5844 6.20641 38.3794C5.94781 38.1664 5.78048 38.0599 5.65879 37.9078C5.35455 37.5123 5.12638 37.0407 4.79172 36.6909C3.92464 35.8086 3.02715 34.9415 2.11444 34.1049C1.59724 33.6333 1.4147 33.0857 1.4147 32.4164C1.38427 30.3171 1.46033 28.2027 1.26258 26.1187C1.11046 24.3997 0.623684 22.696 0.304236 20.9923C0.228177 20.5968 0.16733 20.1861 0.16733 19.7754C1.20173 20.4295 1.17131 21.905 2.40346 22.4222C2.66206 21.6312 2.55558 20.9315 2.22092 20.2165C1.58203 18.7866 0.958343 17.3415 0.304236 15.9268C0.121694 15.5161 0.136906 15.227 0.42593 14.8315C0.684531 14.4817 0.897496 13.8884 0.775802 13.5233C0.0304236 11.348 0.121694 9.12711 0.0912708 6.89098C0.0912708 6.41942 0.0304236 5.96306 0 5.4915C0.0608472 5.47629 0.121694 5.46107 0.16733 5.44586Z" fill="#FF3509"/>
<path d="M9.73574 54.4735C8.03202 52.6785 6.44999 50.8683 5.6894 48.4192C4.95923 46.0766 4.0161 43.81 3.07297 41.5435C2.19069 39.3986 1.18671 37.2994 0.243577 35.1697C0.167518 35.0024 0.137094 34.8046 0.0610352 34.5156C0.243577 34.5765 0.350059 34.5765 0.410907 34.6221C1.85603 35.8847 3.31636 37.1473 4.73106 38.4555C5.62855 39.2769 6.26745 40.2505 6.54126 41.4674C6.63253 41.8629 7.04325 42.1976 7.25622 42.5779C7.53003 43.0494 7.92554 43.521 7.97117 44.0078C8.1385 46.1526 8.26019 48.2975 9.08163 50.3359C9.11206 50.412 9.08163 50.5184 9.08163 50.7922C8.48837 50.0621 8.00159 49.4688 7.4996 48.8451C6.86071 49.0581 6.92156 49.5449 7.14973 49.91C7.69736 50.777 8.27541 51.6745 8.97515 52.4199C9.56841 53.0284 9.65968 53.7129 9.73574 54.4735Z" fill="#FF3509"/>
</g>
<defs>
<clipPath id="clip0">
<rect width="35.626" height="65" fill="white"/>
</clipPath>
</defs>
</svg>
